{
	"asset":{
		"generator":"Khronos glTF Blender I/O v4.3.47",
		"version":"2.0"
	},
	"scene":0,
	"scenes":[
		{
			"name":"Scene",
			"nodes":[
				1
			]
		}
	],
	"nodes":[
		{
			"mesh":0,
			"name":"right_finger_dist_link",
			"rotation":[
				0,
				-0.4226182997226715,
				0,
				0.9063078165054321
			],
			"translation":[
				-0.04563599452376366,
				0,
				-0.020423000678420067
			]
		},
		{
			"children":[
				0
			],
			"mesh":1,
			"name":"right_finger_prox_link",
			"rotation":[
				0.3535534143447876,
				0.3535534143447876,
				-0.6123724579811096,
				0.6123725175857544
			]
		}
	],
	"materials":[
		{
			"doubleSided":true,
			"name":"right_dist",
			"pbrMetallicRoughness":{
				"baseColorFactor":[
					0,
					0,
					0.800000011920929,
					1
				],
				"metallicFactor":0,
				"roughnessFactor":0.5
			}
		},
		{
			"doubleSided":true,
			"name":"right_prox_material",
			"pbrMetallicRoughness":{
				"baseColorFactor":[
					0,
					0,
					0.800000011920929,
					1
				],
				"metallicFactor":0
			}
		}
	],
	"meshes":[
		{
			"name":"right_finger_dist_link",
			"primitives":[
				{
					"attributes":{
						"POSITION":0,
						"NORMAL":1
					},
					"indices":2,
					"material":0
				}
			]
		},
		{
			"name":"right_finger_prox_link",
			"primitives":[
				{
					"attributes":{
						"POSITION":3,
						"NORMAL":4
					},
					"indices":5,
					"material":1
				}
			]
		}
	],
	"accessors":[
		{
			"bufferView":0,
			"componentType":5126,
			"count":38127,
			"max":[
				6.792000203859061e-05,
				0.01179645024240017,
				0.009972279891371727
			],
			"min":[
				-0.04351063072681427,
				-0.01179645024240017,
				-0.010077700018882751
			],
			"type":"VEC3"
		},
		{
			"bufferView":1,
			"componentType":5126,
			"count":38127,
			"type":"VEC3"
		},
		{
			"bufferView":2,
			"componentType":5123,
			"count":39264,
			"type":"SCALAR"
		},
		{
			"bufferView":3,
			"componentType":5126,
			"count":50398,
			"max":[
				0.0059996098279953,
				0.012119900435209274,
				0.015748729929327965
			],
			"min":[
				-0.04675734043121338,
				-0.011980099603533745,
				-0.023719560354948044
			],
			"type":"VEC3"
		},
		{
			"bufferView":4,
			"componentType":5126,
			"count":50398,
			"type":"VEC3"
		},
		{
			"bufferView":5,
			"componentType":5123,
			"count":51990,
			"type":"SCALAR"
		}
	],
	"bufferViews":[
		{
			"buffer":0,
			"byteLength":457524,
			"byteOffset":0,
			"target":34962
		},
		{
			"buffer":0,
			"byteLength":457524,
			"byteOffset":457524,
			"target":34962
		},
		{
			"buffer":0,
			"byteLength":78528,
			"byteOffset":915048,
			"target":34963
		},
		{
			"buffer":0,
			"byteLength":604776,
			"byteOffset":993576,
			"target":34962
		},
		{
			"buffer":0,
			"byteLength":604776,
			"byteOffset":1598352,
			"target":34962
		},
		{
			"buffer":0,
			"byteLength":103980,
			"byteOffset":2203128,
			"target":34963
		}
	],
	"buffers":[
		{
			"byteLength":2307108,
			"uri":"right_finger.bin"
		}
	]
}
