{
	"asset":{
		"generator":"Khronos glTF Blender I/O v4.3.47",
		"version":"2.0"
	},
	"extensionsUsed":[
		"KHR_materials_specular"
	],
	"scene":0,
	"scenes":[
		{
			"name":"Scene",
			"nodes":[
				0
			]
		}
	],
	"nodes":[
		{
			"mesh":0,
			"name":"Cherries",
			"rotation":[
				0.7071068286895752,
				0,
				0,
				0.7071068286895752
			]
		}
	],
	"materials":[
		{
			"doubleSided":true,
			"extensions":{
				"KHR_materials_specular":{
					"specularFactor":0
				}
			},
			"name":"textured:_texture",
			"pbrMetallicRoughness":{
				"baseColorTexture":{
					"index":0
				},
				"metallicFactor":0
			}
		}
	],
	"meshes":[
		{
			"name":"Cherries",
			"primitives":[
				{
					"attributes":{
						"POSITION":0,
						"NORMAL":1,
						"TEXCOORD_0":2
					},
					"indices":3,
					"material":0
				}
			]
		}
	],
	"textures":[
		{
			"sampler":0,
			"source":0
		}
	],
	"images":[
		{
			"mimeType":"image/jpeg",
			"name":"Cherries",
			"uri":"Cherries.jpg"
		}
	],
	"accessors":[
		{
			"bufferView":0,
			"componentType":5126,
			"count":41676,
			"max":[
				33.083587646484375,
				35.56158447265625,
				29.107948303222656
			],
			"min":[
				-33.083587646484375,
				-35.56158447265625,
				-29.107946395874023
			],
			"type":"VEC3"
		},
		{
			"bufferView":1,
			"componentType":5126,
			"count":41676,
			"type":"VEC3"
		},
		{
			"bufferView":2,
			"componentType":5126,
			"count":41676,
			"type":"VEC2"
		},
		{
			"bufferView":3,
			"componentType":5123,
			"count":55536,
			"type":"SCALAR"
		}
	],
	"bufferViews":[
		{
			"buffer":0,
			"byteLength":500112,
			"byteOffset":0,
			"target":34962
		},
		{
			"buffer":0,
			"byteLength":500112,
			"byteOffset":500112,
			"target":34962
		},
		{
			"buffer":0,
			"byteLength":333408,
			"byteOffset":1000224,
			"target":34962
		},
		{
			"buffer":0,
			"byteLength":111072,
			"byteOffset":1333632,
			"target":34963
		}
	],
	"samplers":[
		{
			"magFilter":9729,
			"minFilter":9987
		}
	],
	"buffers":[
		{
			"byteLength":1444704,
			"uri":"cherries.bin"
		}
	]
}
