{
	"asset":{
		"generator":"Khronos glTF Blender I/O v4.3.47",
		"version":"2.0"
	},
	"extensionsUsed":[
		"KHR_materials_specular"
	],
	"scene":0,
	"scenes":[
		{
			"name":"Scene",
			"nodes":[
				0
			]
		}
	],
	"nodes":[
		{
			"mesh":0,
			"name":"Mustard",
			"rotation":[
				0.7071068286895752,
				0,
				0,
				0.7071068286895752
			]
		}
	],
	"materials":[
		{
			"doubleSided":true,
			"extensions":{
				"KHR_materials_specular":{
					"specularFactor":0
				}
			},
			"name":"textured:_texture",
			"pbrMetallicRoughness":{
				"baseColorTexture":{
					"index":0
				},
				"metallicFactor":0
			}
		}
	],
	"meshes":[
		{
			"name":"Mustard",
			"primitives":[
				{
					"attributes":{
						"POSITION":0,
						"NORMAL":1,
						"TEXCOORD_0":2
					},
					"indices":3,
					"material":0
				}
			]
		}
	],
	"textures":[
		{
			"sampler":0,
			"source":0
		}
	],
	"images":[
		{
			"mimeType":"image/jpeg",
			"name":"Mustard",
			"uri":"Mustard.jpg"
		}
	],
	"accessors":[
		{
			"bufferView":0,
			"componentType":5126,
			"count":43701,
			"max":[
				30.840049743652344,
				24.287139892578125,
				80.0595932006836
			],
			"min":[
				-34.293190002441406,
				-24.287139892578125,
				-79.99085998535156
			],
			"type":"VEC3"
		},
		{
			"bufferView":1,
			"componentType":5126,
			"count":43701,
			"type":"VEC3"
		},
		{
			"bufferView":2,
			"componentType":5126,
			"count":43701,
			"type":"VEC2"
		},
		{
			"bufferView":3,
			"componentType":5123,
			"count":56388,
			"type":"SCALAR"
		}
	],
	"bufferViews":[
		{
			"buffer":0,
			"byteLength":524412,
			"byteOffset":0,
			"target":34962
		},
		{
			"buffer":0,
			"byteLength":524412,
			"byteOffset":524412,
			"target":34962
		},
		{
			"buffer":0,
			"byteLength":349608,
			"byteOffset":1048824,
			"target":34962
		},
		{
			"buffer":0,
			"byteLength":112776,
			"byteOffset":1398432,
			"target":34963
		}
	],
	"samplers":[
		{
			"magFilter":9729,
			"minFilter":9987
		}
	],
	"buffers":[
		{
			"byteLength":1511208,
			"uri":"mustard.bin"
		}
	]
}
