{
	"asset":{
		"generator":"Khronos glTF Blender I/O v4.3.47",
		"version":"2.0"
	},
	"scene":0,
	"scenes":[
		{
			"name":"Scene",
			"nodes":[
				1
			]
		}
	],
	"nodes":[
		{
			"mesh":0,
			"name":"left_finger_dist_link",
			"rotation":[
				0,
				0.4226182997226715,
				0,
				0.9063078165054321
			],
			"translation":[
				-0.04563599452376366,
				0,
				0.020423000678420067
			]
		},
		{
			"children":[
				0
			],
			"mesh":1,
			"name":"left_finger_prox_link",
			"rotation":[
				-0.3535534143447876,
				-0.3535534143447876,
				-0.6123724579811096,
				0.6123725175857544
			]
		}
	],
	"materials":[
		{
			"doubleSided":true,
			"name":"left_dist_material",
			"pbrMetallicRoughness":{
				"baseColorFactor":[
					0,
					0,
					0.800000011920929,
					1
				],
				"metallicFactor":0,
				"roughnessFactor":0.5
			}
		},
		{
			"doubleSided":true,
			"name":"left_prox_material",
			"pbrMetallicRoughness":{
				"baseColorFactor":[
					0.006178985349833965,
					0,
					0.800000011920929,
					1
				],
				"metallicFactor":0,
				"roughnessFactor":0.5
			}
		}
	],
	"meshes":[
		{
			"name":"left_finger_dist_link",
			"primitives":[
				{
					"attributes":{
						"POSITION":0,
						"NORMAL":1
					},
					"indices":2,
					"material":0
				}
			]
		},
		{
			"name":"left_finger_prox_link",
			"primitives":[
				{
					"attributes":{
						"POSITION":3,
						"NORMAL":4
					},
					"indices":5,
					"material":1
				}
			]
		}
	],
	"accessors":[
		{
			"bufferView":0,
			"componentType":5126,
			"count":38133,
			"max":[
				6.792000203859061e-05,
				0.01179645024240017,
				0.010077700018882751
			],
			"min":[
				-0.04351063072681427,
				-0.01179645024240017,
				-0.009972279891371727
			],
			"type":"VEC3"
		},
		{
			"bufferView":1,
			"componentType":5126,
			"count":38133,
			"type":"VEC3"
		},
		{
			"bufferView":2,
			"componentType":5123,
			"count":39264,
			"type":"SCALAR"
		},
		{
			"bufferView":3,
			"componentType":5126,
			"count":50305,
			"max":[
				0.0059996098279953,
				0.012119900435209274,
				0.023719539865851402
			],
			"min":[
				-0.046757329255342484,
				-0.011980099603533745,
				-0.01574873924255371
			],
			"type":"VEC3"
		},
		{
			"bufferView":4,
			"componentType":5126,
			"count":50305,
			"type":"VEC3"
		},
		{
			"bufferView":5,
			"componentType":5123,
			"count":51930,
			"type":"SCALAR"
		}
	],
	"bufferViews":[
		{
			"buffer":0,
			"byteLength":457596,
			"byteOffset":0,
			"target":34962
		},
		{
			"buffer":0,
			"byteLength":457596,
			"byteOffset":457596,
			"target":34962
		},
		{
			"buffer":0,
			"byteLength":78528,
			"byteOffset":915192,
			"target":34963
		},
		{
			"buffer":0,
			"byteLength":603660,
			"byteOffset":993720,
			"target":34962
		},
		{
			"buffer":0,
			"byteLength":603660,
			"byteOffset":1597380,
			"target":34962
		},
		{
			"buffer":0,
			"byteLength":103860,
			"byteOffset":2201040,
			"target":34963
		}
	],
	"buffers":[
		{
			"byteLength":2304900,
			"uri":"left_finger.bin"
		}
	]
}
