{
	"asset":{
		"generator":"Khronos glTF Blender I/O v4.3.47",
		"version":"2.0"
	},
	"scene":0,
	"scenes":[
		{
			"name":"Scene",
			"nodes":[
				0
			]
		}
	],
	"nodes":[
		{
			"mesh":0,
			"name":"gripper_base_link"
		}
	],
	"materials":[
		{
			"doubleSided":true,
			"name":"gripper_base_link_material",
			"pbrMetallicRoughness":{
				"baseColorFactor":[
					0.800000011920929,
					0.800000011920929,
					0.800000011920929,
					1
				],
				"metallicFactor":0,
				"roughnessFactor":0.5
			}
		}
	],
	"meshes":[
		{
			"name":"gripper_base_link",
			"primitives":[
				{
					"attributes":{
						"POSITION":0,
						"NORMAL":1
					},
					"indices":2,
					"material":0
				}
			]
		}
	],
	"accessors":[
		{
			"bufferView":0,
			"componentType":5126,
			"count":64243,
			"max":[
				0.03299111872911453,
				0.07764633744955063,
				0.04473606124520302
			],
			"min":[
				-0.03299112990498543,
				0.0002500099944882095,
				-0.04473606124520302
			],
			"type":"VEC3"
		},
		{
			"bufferView":1,
			"componentType":5126,
			"count":64243,
			"type":"VEC3"
		},
		{
			"bufferView":2,
			"componentType":5123,
			"count":76674,
			"type":"SCALAR"
		}
	],
	"bufferViews":[
		{
			"buffer":0,
			"byteLength":770916,
			"byteOffset":0,
			"target":34962
		},
		{
			"buffer":0,
			"byteLength":770916,
			"byteOffset":770916,
			"target":34962
		},
		{
			"buffer":0,
			"byteLength":153348,
			"byteOffset":1541832,
			"target":34963
		}
	],
	"buffers":[
		{
			"byteLength":1695180,
			"uri":"base_gripper.bin"
		}
	]
}
